<svg width="1440" height="824" viewBox="0 0 1440 824" fill="none" xmlns="http://www.w3.org/2000/svg">
<path d="M1225.13 444.586L1210.33 472.574C1202.89 486.645 1199 502.428 1199 518.346C1199 611.312 1085.36 657.624 1021.55 590.021L1013.85 581.87C983.249 549.451 935.775 539.358 894.63 556.522L850.279 575.025C819.427 587.896 783.962 582.367 758.491 560.717L730.923 537.285C690.717 503.109 628.595 525.578 619.554 577.567C613.151 614.379 578.322 639.187 541.439 633.206L539.34 632.866C535.785 632.289 532.28 631.441 528.855 630.328L480.156 614.501C417.15 594.024 348.174 617.305 310.464 671.774L284 710L245.079 762.732C230.125 782.992 208.817 797.662 184.555 804.401L149.959 814.011C128.091 820.086 104.696 812.717 90.2571 795.205C60.6765 759.331 2.95488 771.625 -9.4406 816.439L-10.7662 821.232C-21.4043 859.693 7.7442 897.637 47.6476 897.272L1409.84 884.824C1459.17 884.373 1498.34 843.199 1496.33 793.91L1478.08 345.854C1476.23 300.421 1410.67 295.902 1402.6 340.652C1402.2 342.879 1402 345.139 1402 347.402V358.03C1402 405.417 1352.66 436.662 1309.82 416.402C1278.6 401.634 1241.28 414.053 1225.13 444.586Z" fill="url(#paint0_linear_179_55)"/>
<path d="M1225.13 444.586L1210.33 472.574C1202.89 486.645 1199 502.428 1199 518.346C1199 611.312 1085.36 657.624 1021.55 590.021L1013.85 581.87C983.249 549.451 935.775 539.358 894.63 556.522L850.279 575.025C819.427 587.896 783.962 582.367 758.491 560.717L730.923 537.285C690.717 503.109 628.595 525.578 619.554 577.567C613.151 614.379 578.322 639.187 541.439 633.206L539.34 632.866C535.785 632.289 532.28 631.441 528.855 630.328L480.156 614.501C417.15 594.024 348.174 617.305 310.464 671.774L284 710L245.079 762.732C230.125 782.992 208.817 797.662 184.555 804.401L149.959 814.011C128.091 820.086 104.696 812.717 90.2571 795.205C60.6765 759.331 2.95488 771.625 -9.4406 816.439L-10.7662 821.232C-21.4043 859.693 7.7442 897.637 47.6476 897.272L1409.84 884.824C1459.17 884.373 1498.34 843.199 1496.33 793.91L1478.08 345.854C1476.23 300.421 1410.67 295.902 1402.6 340.652C1402.2 342.879 1402 345.139 1402 347.402V358.03C1402 405.417 1352.66 436.662 1309.82 416.402C1278.6 401.634 1241.28 414.053 1225.13 444.586Z" fill="url(#paint1_linear_179_55)"/>
<rect y="385" width="1438" height="439" fill="url(#paint2_linear_179_55)" fill-opacity="0.9"/>
<defs>
<linearGradient id="paint0_linear_179_55" x1="1176" y1="36" x2="1452" y2="686" gradientUnits="userSpaceOnUse">
<stop offset="0.6283" stop-color="#F6F6F6"/>
<stop offset="0.895718" stop-color="#B7C1DC"/>
</linearGradient>
<linearGradient id="paint1_linear_179_55" x1="540" y1="556" x2="940" y2="696" gradientUnits="userSpaceOnUse">
<stop offset="0.0193106" stop-color="#F6F6F6" stop-opacity="0.89"/>
<stop offset="0.802105" stop-color="#C5CDE3"/>
</linearGradient>
<linearGradient id="paint2_linear_179_55" x1="702" y1="526" x2="702.473" y2="850.001" gradientUnits="userSpaceOnUse">
<stop stop-color="#F6F6F6" stop-opacity="0"/>
<stop offset="0.376997" stop-color="#ACB8D7" stop-opacity="0.69"/>
<stop offset="0.827553" stop-color="#7B96DC"/>
</linearGradient>
</defs>
</svg>
