<svg width="1440" height="515" viewBox="0 0 1440 515" fill="none" xmlns="http://www.w3.org/2000/svg">
<path d="M1225.13 135.586L1210.33 163.574C1202.89 177.645 1199 193.428 1199 209.346C1199 302.312 1085.36 348.624 1021.55 281.021L1013.85 272.87C983.249 240.451 935.775 230.358 894.63 247.522L850.279 266.025C819.427 278.896 783.962 273.367 758.491 251.717L730.923 228.285C690.717 194.109 628.595 216.578 619.554 268.567C613.151 305.379 578.322 330.187 541.439 324.206L539.34 323.866C535.785 323.289 532.28 322.441 528.855 321.328L480.156 305.501C417.15 285.024 348.174 308.305 310.464 362.774L284 401L245.079 453.732C230.125 473.992 208.817 488.662 184.555 495.401L149.959 505.011C128.091 511.086 104.696 503.717 90.2571 486.205C60.6765 450.331 2.95488 462.625 -9.4406 507.439L-10.7662 512.232C-21.4043 550.693 7.7442 588.637 47.6476 588.272L1409.84 575.824C1459.17 575.373 1498.34 534.199 1496.33 484.91L1478.08 36.8539C1476.23 -8.57904 1410.67 -13.0978 1402.6 31.6517C1402.2 33.8795 1402 36.1386 1402 38.4023V49.0304C1402 96.4166 1352.66 127.662 1309.82 107.402C1278.6 92.6336 1241.28 105.053 1225.13 135.586Z" fill="url(#paint0_linear_163_4)"/>
<path d="M1225.13 135.586L1210.33 163.574C1202.89 177.645 1199 193.428 1199 209.346C1199 302.312 1085.36 348.624 1021.55 281.021L1013.85 272.87C983.249 240.451 935.775 230.358 894.63 247.522L850.279 266.025C819.427 278.896 783.962 273.367 758.491 251.717L730.923 228.285C690.717 194.109 628.595 216.578 619.554 268.567C613.151 305.379 578.322 330.187 541.439 324.206L539.34 323.866C535.785 323.289 532.28 322.441 528.855 321.328L480.156 305.501C417.15 285.024 348.174 308.305 310.464 362.774L284 401L245.079 453.732C230.125 473.992 208.817 488.662 184.555 495.401L149.959 505.011C128.091 511.086 104.696 503.717 90.2571 486.205C60.6765 450.331 2.95488 462.625 -9.4406 507.439L-10.7662 512.232C-21.4043 550.693 7.7442 588.637 47.6476 588.272L1409.84 575.824C1459.17 575.373 1498.34 534.199 1496.33 484.91L1478.08 36.8539C1476.23 -8.57904 1410.67 -13.0978 1402.6 31.6517C1402.2 33.8795 1402 36.1386 1402 38.4023V49.0304C1402 96.4166 1352.66 127.662 1309.82 107.402C1278.6 92.6336 1241.28 105.053 1225.13 135.586Z" fill="url(#paint1_linear_163_4)"/>
<defs>
<linearGradient id="paint0_linear_163_4" x1="1176" y1="-273" x2="1452" y2="377" gradientUnits="userSpaceOnUse">
<stop offset="0.6283" stop-color="#F6F6F6"/>
<stop offset="0.895718" stop-color="#B7C1DC"/>
</linearGradient>
<linearGradient id="paint1_linear_163_4" x1="540" y1="247" x2="940" y2="387" gradientUnits="userSpaceOnUse">
<stop offset="0.0193106" stop-color="#F6F6F6" stop-opacity="0.89"/>
<stop offset="0.802105" stop-color="#C5CDE3"/>
</linearGradient>
</defs>
</svg>
